<svg width="822" height="72" viewBox="0 0 822 72" fill="none" xmlns="http://www.w3.org/2000/svg">
<g filter="url(#filter0_d)">
<line x1="63" y1="30.5" x2="762.001" y2="30.5" stroke="white" stroke-width="3"/>
</g>
<g filter="url(#filter1_d)">
<circle cx="786" cy="32" r="32" fill="white"/>
<path d="M781.856 26.2637V30.0273H784.719C785.546 30.0273 786.294 30.1274 786.961 30.3276C787.642 30.5145 788.222 30.8014 788.703 31.1885C789.183 31.5889 789.55 32.0894 789.804 32.6899C790.057 33.2905 790.184 34.0112 790.184 34.8521C790.184 35.5994 790.071 36.2668 789.844 36.854C789.63 37.4279 789.317 37.9084 788.903 38.2954C788.476 38.7091 787.949 39.0228 787.321 39.2363C786.707 39.4365 786.013 39.5366 785.239 39.5366C784.519 39.5366 783.858 39.4299 783.257 39.2163C782.67 39.0028 782.163 38.7025 781.736 38.3154C781.295 37.9417 780.955 37.488 780.715 36.9541C780.488 36.4069 780.375 35.813 780.375 35.1724H775.59C775.59 36.5337 775.85 37.7282 776.371 38.7559C776.904 39.7702 777.612 40.6243 778.493 41.3184C779.374 42.0124 780.395 42.5329 781.556 42.8799C782.717 43.2269 783.925 43.4004 785.179 43.4004C786.567 43.4004 787.855 43.2135 789.043 42.8398C790.244 42.4528 791.285 41.8923 792.166 41.1582C793.034 40.4375 793.714 39.55 794.208 38.4956C794.715 37.4279 794.969 36.2134 794.969 34.8521C794.969 34.118 794.882 33.4106 794.708 32.73C794.535 32.036 794.255 31.3887 793.868 30.7881C793.481 30.2008 792.98 29.6737 792.366 29.2065C791.766 28.7261 791.032 28.339 790.164 28.0454C790.898 27.7118 791.539 27.3047 792.086 26.8242C792.633 26.3438 793.087 25.8299 793.447 25.2827C793.808 24.7222 794.075 24.1416 794.248 23.541C794.435 22.9404 794.528 22.3398 794.528 21.7393C794.528 20.3779 794.301 19.1834 793.848 18.1558C793.394 17.1281 792.753 16.2606 791.926 15.5532C791.112 14.8592 790.124 14.3387 788.963 13.9917C787.815 13.6313 786.554 13.4512 785.179 13.4512C783.831 13.4512 782.59 13.6514 781.456 14.0518C780.334 14.4521 779.36 15.006 778.533 15.7134C777.705 16.4341 777.058 17.2816 776.591 18.2559C776.124 19.2301 775.89 20.2979 775.89 21.459H780.675C780.675 20.8317 780.788 20.2645 781.015 19.7573C781.255 19.2502 781.582 18.8164 781.996 18.4561C782.396 18.0957 782.87 17.8221 783.417 17.6353C783.978 17.4351 784.585 17.335 785.239 17.335C785.973 17.335 786.621 17.4351 787.181 17.6353C787.755 17.8354 788.229 18.1157 788.603 18.4761C788.976 18.8631 789.257 19.3302 789.443 19.8774C789.644 20.4246 789.744 21.0452 789.744 21.7393C789.744 22.3799 789.637 22.9805 789.423 23.541C789.223 24.0882 788.93 24.5487 788.542 24.9224C788.129 25.3494 787.602 25.6831 786.961 25.9233C786.32 26.1502 785.573 26.2637 784.719 26.2637H781.856Z" fill="black"/>
</g>
<g filter="url(#filter2_d)">
<circle cx="36" cy="32" r="32" fill="white"/>
<path d="M39.7437 43V13.8516H39.4434L27.4517 18.2959V22.52L34.9189 19.7773V43H39.7437Z" fill="black"/>
</g>
<g filter="url(#filter3_d)">
<circle cx="411" cy="32" r="32" fill="white"/>
<path d="M420.349 43V39.1362H406.776L413.262 32.2095C414.116 31.3019 414.904 30.4211 415.625 29.5669C416.359 28.7127 416.993 27.8652 417.526 27.0244C418.047 26.1836 418.454 25.3361 418.748 24.4819C419.055 23.6144 419.208 22.7202 419.208 21.7993C419.208 20.5715 419.008 19.4504 418.607 18.436C418.207 17.4084 417.626 16.5275 416.866 15.7935C416.092 15.0594 415.137 14.4855 414.003 14.0718C412.882 13.658 411.607 13.4512 410.179 13.4512C408.658 13.4512 407.276 13.6981 406.035 14.1919C404.807 14.6857 403.766 15.353 402.912 16.1938C402.045 17.0347 401.377 18.0223 400.91 19.1567C400.443 20.2778 400.209 21.4723 400.209 22.7402H405.014C405.014 21.8994 405.121 21.152 405.334 20.498C405.548 19.8307 405.868 19.2702 406.295 18.8164C406.709 18.3626 407.23 18.0156 407.857 17.7754C408.484 17.5352 409.225 17.415 410.079 17.415C410.746 17.415 411.347 17.5285 411.881 17.7554C412.428 17.9823 412.895 18.2959 413.282 18.6963C413.669 19.0967 413.963 19.5771 414.163 20.1377C414.363 20.6982 414.463 21.3188 414.463 21.9995C414.463 22.5067 414.39 23.0138 414.243 23.521C414.11 24.0148 413.883 24.5487 413.562 25.1226C413.229 25.6965 412.795 26.3304 412.261 27.0244C411.727 27.7051 411.067 28.4792 410.279 29.3467L400.79 39.6768V43H420.349Z" fill="black"/>
</g>
<defs>
<filter id="filter0_d" x="59" y="29" width="707.001" height="11" filterUnits="userSpaceOnUse" color-interpolation-filters="sRGB">
<feFlood flood-opacity="0" result="BackgroundImageFix"/>
<feColorMatrix in="SourceAlpha" type="matrix" values="0 0 0 0 0 0 0 0 0 0 0 0 0 0 0 0 0 0 127 0"/>
<feOffset dy="4"/>
<feGaussianBlur stdDeviation="2"/>
<feColorMatrix type="matrix" values="0 0 0 0 0 0 0 0 0 0 0 0 0 0 0 0 0 0 0.25 0"/>
<feBlend mode="normal" in2="BackgroundImageFix" result="effect1_dropShadow"/>
<feBlend mode="normal" in="SourceGraphic" in2="effect1_dropShadow" result="shape"/>
</filter>
<filter id="filter1_d" x="750" y="0" width="72" height="72" filterUnits="userSpaceOnUse" color-interpolation-filters="sRGB">
<feFlood flood-opacity="0" result="BackgroundImageFix"/>
<feColorMatrix in="SourceAlpha" type="matrix" values="0 0 0 0 0 0 0 0 0 0 0 0 0 0 0 0 0 0 127 0"/>
<feOffset dy="4"/>
<feGaussianBlur stdDeviation="2"/>
<feColorMatrix type="matrix" values="0 0 0 0 0 0 0 0 0 0 0 0 0 0 0 0 0 0 0.25 0"/>
<feBlend mode="normal" in2="BackgroundImageFix" result="effect1_dropShadow"/>
<feBlend mode="normal" in="SourceGraphic" in2="effect1_dropShadow" result="shape"/>
</filter>
<filter id="filter2_d" x="0" y="0" width="72" height="72" filterUnits="userSpaceOnUse" color-interpolation-filters="sRGB">
<feFlood flood-opacity="0" result="BackgroundImageFix"/>
<feColorMatrix in="SourceAlpha" type="matrix" values="0 0 0 0 0 0 0 0 0 0 0 0 0 0 0 0 0 0 127 0"/>
<feOffset dy="4"/>
<feGaussianBlur stdDeviation="2"/>
<feColorMatrix type="matrix" values="0 0 0 0 0 0 0 0 0 0 0 0 0 0 0 0 0 0 0.25 0"/>
<feBlend mode="normal" in2="BackgroundImageFix" result="effect1_dropShadow"/>
<feBlend mode="normal" in="SourceGraphic" in2="effect1_dropShadow" result="shape"/>
</filter>
<filter id="filter3_d" x="375" y="0" width="72" height="72" filterUnits="userSpaceOnUse" color-interpolation-filters="sRGB">
<feFlood flood-opacity="0" result="BackgroundImageFix"/>
<feColorMatrix in="SourceAlpha" type="matrix" values="0 0 0 0 0 0 0 0 0 0 0 0 0 0 0 0 0 0 127 0"/>
<feOffset dy="4"/>
<feGaussianBlur stdDeviation="2"/>
<feColorMatrix type="matrix" values="0 0 0 0 0 0 0 0 0 0 0 0 0 0 0 0 0 0 0.25 0"/>
<feBlend mode="normal" in2="BackgroundImageFix" result="effect1_dropShadow"/>
<feBlend mode="normal" in="SourceGraphic" in2="effect1_dropShadow" result="shape"/>
</filter>
</defs>
</svg>
