<svg width="171" height="180" viewBox="0 0 171 180" fill="none" xmlns="http://www.w3.org/2000/svg">
<path d="M111.976 4.56176L97.8237 64.2098L114.643 58.0533L141.958 48.3009" stroke="black"/>
<path d="M40.6021 67.1521C38.104 68.3571 15.6214 79.2019 4.69238 84.4738L12.8857 98.4532L28.4606 106.803L68.0133 87.7241L87.3073 62.5547" stroke="#96BB7C"/>
<path d="M166.307 119.164L148.753 107.01L139.672 82.6164L102.174 61.8591" stroke="black"/>
<path d="M126.942 173.824L115.916 175.489L100.599 156.898L93.7127 133.834L96.3813 113.061L91.9818 70.5303" stroke="black"/>
<ellipse rx="3.30509" ry="3.39306" transform="matrix(0.90069 -0.434462 0.505651 0.862738 139.538 83.2624)" fill="black"/>
<ellipse rx="3.30508" ry="3.39306" transform="matrix(0.90069 -0.434463 0.50565 0.862738 149.429 106.653)" fill="black"/>
<ellipse rx="3.3051" ry="3.39306" transform="matrix(0.90069 -0.434463 0.50565 0.862738 166.307 119.164)" fill="black"/>
<ellipse rx="3.3051" ry="3.39306" transform="matrix(0.90069 -0.434463 0.50565 0.862738 112.388 4.36333)" fill="black"/>
<ellipse rx="3.30509" ry="3.39306" transform="matrix(0.90069 -0.434463 0.50565 0.862739 67.7636 87.8447)" fill="#96BB7C"/>
<ellipse rx="3.30509" ry="3.39306" transform="matrix(0.900689 -0.434463 0.50565 0.862739 29.0644 106.512)" fill="#96BB7C"/>
<ellipse rx="3.30509" ry="3.39306" transform="matrix(0.90069 -0.434463 0.50565 0.862738 13.2709 99.1105)" fill="#96BB7C"/>
<ellipse rx="3.30509" ry="3.39306" transform="matrix(0.90069 -0.434463 0.50565 0.862739 4.69256 84.4738)" fill="#96BB7C"/>
<ellipse rx="3.3051" ry="3.39306" transform="matrix(0.90069 -0.434463 0.505651 0.862738 40.415 67.2426)" fill="#96BB7C"/>
<ellipse rx="3.3051" ry="3.39306" transform="matrix(0.90069 -0.434463 0.50565 0.862738 141.958 48.301)" fill="black"/>
<ellipse rx="3.30509" ry="3.39306" transform="matrix(0.90069 -0.434463 0.50565 0.862738 120.893 54.7073)" fill="black"/>
<ellipse rx="3.3051" ry="3.39306" transform="matrix(0.90069 -0.434463 0.50565 0.862738 96.1977 113.556)" fill="black"/>
<ellipse rx="3.30509" ry="3.39306" transform="matrix(0.90069 -0.434463 0.50565 0.862739 94.3569 133.218)" fill="black"/>
<ellipse rx="3.30509" ry="3.39306" transform="matrix(0.90069 -0.434463 0.505651 0.862738 100.413 156.581)" fill="black"/>
<ellipse rx="3.30509" ry="3.39306" transform="matrix(0.90069 -0.434463 0.50565 0.862739 115.4 175.637)" fill="black"/>
<ellipse rx="3.30509" ry="3.39306" transform="matrix(0.90069 -0.434463 0.50565 0.862739 129.023 172.82)" fill="black"/>
<path d="M110.063 63.7676C110.327 71.0907 103.902 76.9119 95.5912 76.6543C87.2802 76.3967 80.4215 70.1638 80.1578 62.8406C79.8942 55.5175 86.319 49.6963 94.6299 49.9539C102.941 50.2115 109.8 56.4444 110.063 63.7676Z" fill="#96BB7C" stroke="#96BB7C"/>
<circle cx="95" cy="63" r="17.5" fill="#96BB7C" stroke="black"/>
<path d="M84.6165 74.312C84.6165 74.312 83.6165 67.562 89.6165 67.562C91.2125 68.626 92.5795 69.3615 94.1165 69.358H94.054C95.591 69.3615 96.4079 68.276 98.0039 67.212C105.789 67.212 103.754 74.312 103.754 74.312" fill="white"/>
<path d="M93.7434 72.649L92.1239 70.683L90.5044 68.717H96.9824L95.3629 70.683L93.7434 72.649Z" fill="#FFFFFE"/>
<path d="M89.24 67.36C89.24 67.36 86.29 69.3735 88.16 71.0935H90.446L90.0295 72.9645L93.975 73.9405L94.12 72.688L89.94 67.506" fill="#96BB7C"/>
<path d="M109.519 66.6111L106.044 74.7861H93.5486L97.0236 66.6111H109.519Z" fill="#D0CFCE"/>
<path d="M109.626 66.6111L106.151 74.7861H101.656L105.131 66.6111H109.516H109.626Z" fill="#9B9B9A"/>
<path d="M96.2019 68.5435L97.0234 66.611H105.164C106.211 64.235 103.001 64.041 103.001 64.041C103.001 64.041 103.035 63.958 103.041 63.692C103.059 62.9155 102.941 60.5815 100.929 54.212C97.3714 45.645 90.6209 49.649 89.9229 50.8505C88.7559 50.4205 88.2699 50.8505 87.3009 53.694C86.5939 56.371 85.2094 61.7815 85.3159 63.8745C84.9094 63.6605 81.5794 63.8725 83.7694 67.918C84.2736 68.5425 84.8231 69.129 85.4134 69.673C86.1194 68.4985 87.3824 67.562 89.6164 67.562C91.1989 68.617 92.5574 69.347 94.0789 69.356C94.9174 69.351 95.5439 69.016 96.2019 68.5435Z" fill="black"/>
<path d="M99.7055 56.153C99.8165 56.4915 99.908 56.843 99.9785 57.2045C100.088 57.7695 100.146 58.36 100.146 58.9675C100.146 63.0735 97.484 66.4015 94.1995 66.4015C90.915 66.4015 88.252 63.0735 88.252 58.9675C88.252 58.7265 88.261 58.4885 88.279 58.2535L88.3045 58.4455C89.3145 57.955 90.8195 53.5375 90.8195 53.5375C90.8195 53.5375 90.4645 56.7575 99.7295 56.345" fill="#FADCBC"/>
<path d="M97.0098 58.4335C97.0097 58.6988 96.9043 58.9533 96.7166 59.1409C96.5289 59.3285 96.2744 59.4338 96.009 59.4337C95.7437 59.4337 95.4892 59.3282 95.3017 59.1405C95.1141 58.9528 95.0087 58.6983 95.0088 58.433C95.0089 58.1676 95.1143 57.9132 95.302 57.7256C95.4897 57.538 95.7442 57.4327 96.0095 57.4327C96.2749 57.4328 96.5293 57.5383 96.7169 57.726C96.9045 57.9136 97.0099 58.1681 97.0098 58.4335Z" fill="black"/>
<path d="M93.0095 58.4335C93.0095 58.5649 92.9836 58.695 92.9333 58.8163C92.883 58.9377 92.8093 59.048 92.7163 59.1409C92.6234 59.2338 92.5131 59.3074 92.3917 59.3577C92.2703 59.4079 92.1402 59.4338 92.0088 59.4337C91.8774 59.4337 91.7473 59.4078 91.6259 59.3575C91.5046 59.3072 91.3943 59.2335 91.3014 59.1405C91.2085 59.0476 91.1349 58.9373 91.0846 58.8159C91.0344 58.6945 91.0085 58.5644 91.0085 58.433C91.0086 58.1676 91.1141 57.9132 91.3018 57.7256C91.4894 57.538 91.7439 57.4327 92.0093 57.4327C92.2746 57.4328 92.5291 57.5383 92.7167 57.726C92.9043 57.9136 93.0096 58.1681 93.0095 58.4335Z" fill="black"/>
<path d="M94.0091 63.4349C93.4336 63.4349 92.8576 63.2919 92.2856 63.0059C92.2268 62.9765 92.1744 62.9359 92.1314 62.8862C92.0883 62.8366 92.0555 62.779 92.0347 62.7166C92.0139 62.6543 92.0056 62.5885 92.0103 62.523C92.0149 62.4574 92.0325 62.3934 92.0619 62.3347C92.0912 62.2759 92.1319 62.2235 92.1815 62.1805C92.2312 62.1374 92.2888 62.1046 92.3511 62.0838C92.4135 62.063 92.4793 62.0547 92.5448 62.0594C92.6104 62.064 92.6743 62.0815 92.7331 62.1109C93.5916 62.5409 94.4266 62.5409 95.2856 62.1109C95.4043 62.0516 95.5417 62.0418 95.6676 62.0838C95.7935 62.1257 95.8975 62.216 95.9569 62.3347C96.0162 62.4534 96.026 62.5908 95.984 62.7166C95.942 62.8425 95.8518 62.9466 95.7331 63.0059C95.1611 63.2919 94.5851 63.4349 94.0091 63.4349Z" fill="black"/>
<path d="M94.0096 66.7005C90.6076 66.7005 87.8396 63.2975 87.8396 59.114C87.8396 58.8715 87.8496 58.632 87.8671 58.3955L88.8641 58.4715C88.848 58.6853 88.84 58.8996 88.8401 59.114C88.8401 62.746 91.1586 65.7005 94.0096 65.7005C96.8596 65.7005 99.1781 62.746 99.1781 59.114C99.1781 58.576 99.1276 58.043 99.0276 57.529C98.9656 57.209 98.8826 56.8925 98.7826 56.5865L99.7326 56.275C99.8461 56.62 99.9391 56.978 100.009 57.338C100.121 57.9145 100.178 58.512 100.178 59.114C100.178 63.2975 97.4106 66.7005 94.0096 66.7005Z" fill="black"/>
<path d="M96.7581 61.246H95.7546C95.3868 61.2457 95.0269 61.1392 94.7181 60.9394C94.4092 60.7396 94.1646 60.4549 94.0136 60.1195C93.8627 60.4548 93.6182 60.7395 93.3094 60.9393C93.0007 61.1391 92.6409 61.2456 92.2731 61.246H91.2696C90.7638 61.2455 90.2788 61.0443 89.9211 60.6866C89.5634 60.3289 89.3622 59.8439 89.3616 59.338V58.719H89.0151C88.8825 58.719 88.7554 58.6663 88.6616 58.5725C88.5678 58.4788 88.5151 58.3516 88.5151 58.219C88.5151 58.0864 88.5678 57.9592 88.6616 57.8654C88.7554 57.7717 88.8825 57.719 89.0151 57.719H89.8616C89.9942 57.719 90.1214 57.7717 90.2152 57.8654C90.309 57.9592 90.3616 58.0864 90.3616 58.219V59.338C90.3616 59.839 90.7686 60.246 91.2696 60.246H92.2731C92.5139 60.2457 92.7447 60.15 92.9149 59.9798C93.0851 59.8095 93.1809 59.5787 93.1811 59.338V58.786C93.1811 58.6534 93.2338 58.5262 93.3276 58.4324C93.4214 58.3387 93.5485 58.286 93.6811 58.286H94.3461C94.4787 58.286 94.6059 58.3387 94.6997 58.4324C94.7935 58.5262 94.8461 58.6534 94.8461 58.786V59.338C94.8461 59.839 95.2536 60.246 95.7546 60.246H96.7581C96.9989 60.2457 97.2297 60.15 97.3999 59.9798C97.5701 59.8095 97.6659 59.5787 97.6661 59.338V58.219C97.6661 58.0864 97.7188 57.9592 97.8126 57.8654C97.9064 57.7717 98.0335 57.719 98.1661 57.719H98.7441C98.8767 57.719 99.0039 57.7717 99.0977 57.8654C99.1915 57.9592 99.2441 58.0864 99.2441 58.219C99.2441 58.3516 99.1915 58.4788 99.0977 58.5725C99.0039 58.6663 98.8767 58.719 98.7441 58.719H98.6661V59.338C98.6656 59.8439 98.4644 60.3289 98.1067 60.6866C97.749 61.0443 97.264 61.2455 96.7581 61.246Z" fill="black"/>
<path d="M88.3665 58.9335C88.253 58.9342 88.1427 58.8961 88.0537 58.8257C87.9647 58.7553 87.9024 58.6566 87.877 58.546C87.8515 58.4354 87.8645 58.3194 87.9138 58.2172C87.963 58.115 88.0457 58.0326 88.148 57.9835C88.6115 57.7585 89.63 55.532 90.2905 53.5935C90.3305 53.4773 90.4119 53.3798 90.5191 53.3197C90.6264 53.2596 90.7521 53.2412 90.8721 53.2679C90.9921 53.2947 91.098 53.3647 91.1697 53.4646C91.2414 53.5645 91.2737 53.6873 91.2605 53.8095C91.261 53.8095 91.2525 54.1525 91.6645 54.5645C92.2755 55.174 94.075 56.163 99.234 55.932C99.3665 55.9261 99.4959 55.973 99.5938 56.0624C99.6917 56.1519 99.7501 56.2766 99.756 56.409C99.762 56.5415 99.7151 56.6709 99.6256 56.7688C99.5362 56.8667 99.4115 56.9251 99.279 56.931C94.9655 57.1245 92.144 56.541 90.889 55.2C90.86 55.1694 90.8319 55.1381 90.8045 55.106C90.2575 56.524 89.3755 58.499 88.5845 58.8835C88.5166 58.9166 88.442 58.9337 88.3665 58.9335Z" fill="black"/>
<path d="M84.1426 68.015C83.9651 68.015 83.7926 67.92 83.7026 67.7535C82.7976 66.0815 82.6306 64.9435 83.1916 64.273C83.6566 63.718 84.4521 63.7065 85.0236 63.789C85.1131 62.089 85.8036 58.812 87.1201 53.8285C87.8051 51.815 88.2476 51.044 88.8846 50.7405C89.2436 50.5695 89.6066 50.5895 89.9256 50.667C90.7096 49.842 92.7266 48.724 94.9291 48.8655C96.7531 48.9865 99.2966 50.0205 101.056 54.2585C101.965 57.1285 102.574 59.46 102.883 61.23C102.918 61.433 103.154 62.901 103.277 63.665C103.749 63.669 104.435 63.802 104.927 64.434C104.967 64.4858 104.997 64.545 105.014 64.6083C105.032 64.6716 105.036 64.7378 105.028 64.8029C105.02 64.8681 104.999 64.931 104.967 64.9881C104.934 65.0452 104.891 65.0954 104.839 65.1357C104.788 65.1761 104.728 65.2058 104.665 65.2233C104.602 65.2407 104.536 65.2456 104.47 65.2374C104.405 65.2293 104.342 65.2085 104.285 65.1761C104.228 65.1436 104.178 65.1003 104.138 65.0485C103.73 64.5235 102.98 64.686 102.973 64.6885C102.906 64.7045 102.836 64.7065 102.768 64.6945C102.701 64.6824 102.636 64.6565 102.579 64.6183C102.522 64.5801 102.473 64.5306 102.436 64.4727C102.398 64.4148 102.374 64.3499 102.363 64.282C102.363 64.282 101.946 61.6765 101.898 61.4015C101.597 59.6755 100.998 57.387 100.118 54.6005C98.8776 51.62 97.1046 50.012 94.8626 49.863C92.7236 49.724 90.8116 51.021 90.5351 51.4965C90.4131 51.7065 90.1576 51.797 89.9301 51.7145C89.5501 51.5745 89.4061 51.5995 89.3146 51.6435C88.8996 51.8415 88.4561 53.005 88.0766 54.1175C86.6216 59.6325 85.9261 63.0955 86.0211 64.377C86.0275 64.4591 86.0135 64.5415 85.9803 64.6169C85.9471 64.6922 85.8957 64.7582 85.8308 64.8089C85.7658 64.8595 85.6894 64.8933 85.6082 64.9072C85.527 64.9211 85.4437 64.9147 85.3656 64.8885C84.9091 64.7405 84.1661 64.666 83.9576 64.9155C83.8916 64.9955 83.6101 65.4825 84.5826 67.277C84.6235 67.3532 84.644 67.4387 84.6421 67.5252C84.6401 67.6117 84.6158 67.6962 84.5715 67.7705C84.5272 67.8449 84.4644 67.9064 84.3892 67.9493C84.3141 67.9921 84.2291 68.0147 84.1426 68.015Z" fill="black"/>
<path d="M84.4336 74.3595C84.3144 74.3594 84.1991 74.3167 84.1087 74.239C84.0183 74.1613 83.9587 74.0538 83.9406 73.936C83.9201 73.801 83.4541 70.6195 85.2306 68.5485C86.1926 67.428 87.6066 66.86 89.4346 66.86C89.5334 66.86 89.6299 66.8892 89.7121 66.944C91.2931 67.998 92.5496 68.653 93.9151 68.6565H93.9351C94.0675 68.6565 94.1946 68.709 94.2883 68.8026C94.3821 68.8961 94.4348 69.023 94.4351 69.1555C94.4357 69.2222 94.4229 69.2884 94.3974 69.35C94.3719 69.4117 94.3342 69.4676 94.2866 69.5144C94.239 69.5611 94.1824 69.5978 94.1203 69.6222C94.0582 69.6467 93.9918 69.6583 93.9251 69.6565H93.8721C93.8641 69.6565 93.8571 69.6565 93.8491 69.6555C92.2991 69.6345 90.9411 68.954 89.2861 67.8615C87.8381 67.8895 86.7311 68.3385 85.9931 69.196C84.5151 70.914 84.9246 73.756 84.9286 73.7845C84.9394 73.8557 84.9347 73.9285 84.9148 73.9977C84.8949 74.067 84.8602 74.1311 84.8132 74.1857C84.7662 74.2403 84.7079 74.2841 84.6424 74.3141C84.5769 74.3441 84.5057 74.3596 84.4336 74.3595Z" fill="black"/>
<path d="M92.973 72.5414C92.898 72.5417 92.8239 72.5249 92.7563 72.4924C92.6886 72.46 92.6292 72.4126 92.5825 72.3539L88.95 67.8184C88.9089 67.7672 88.8783 67.7083 88.8599 67.6452C88.8416 67.5822 88.8359 67.5161 88.8431 67.4508C88.8504 67.3855 88.8704 67.3222 88.9022 67.2647C88.9339 67.2071 88.9766 67.1564 89.028 67.1154C89.0792 67.0743 89.138 67.0436 89.201 67.0253C89.2641 67.0069 89.3302 67.0012 89.3955 67.0084C89.4607 67.0157 89.5239 67.0357 89.5814 67.0675C89.6389 67.0992 89.6896 67.1421 89.7305 67.1934L93.363 71.7289C93.4221 71.8024 93.4591 71.8911 93.4699 71.9847C93.4807 72.0783 93.4648 72.1731 93.424 72.2581C93.3833 72.3431 93.3193 72.4148 93.2394 72.4649C93.1596 72.515 93.0673 72.5416 92.973 72.5414Z" fill="black"/>
<path d="M92.4785 73.578C92.4415 73.578 92.4035 73.574 92.3655 73.5655L89.917 73.0015C89.8506 72.9862 89.788 72.9576 89.733 72.9172C89.6781 72.8769 89.632 72.8257 89.5976 72.7669C89.5631 72.7081 89.5411 72.6428 89.5329 72.5751C89.5246 72.5075 89.5303 72.4388 89.5495 72.3735L89.7785 71.5935H88.1595C88.0345 71.5935 87.9135 71.546 87.8215 71.4615C87.119 70.8155 87.0115 70.1385 87.0445 69.684C87.151 68.2205 88.774 67.073 88.9585 66.947C89.0681 66.8755 89.2012 66.8498 89.3294 66.8754C89.4577 66.9009 89.5708 66.9757 89.6446 67.0837C89.7184 67.1916 89.7469 67.3242 89.7241 67.453C89.7013 67.5817 89.6289 67.6964 89.5225 67.7725C89.131 68.0415 88.101 68.9225 88.0415 69.7585C88.0205 70.054 88.1265 70.3285 88.3665 70.5935H90.4465C90.5241 70.5937 90.6005 70.6119 90.6699 70.6467C90.7392 70.6814 90.7995 70.7318 90.846 70.7939C90.8925 70.8559 90.924 70.9279 90.938 71.0042C90.952 71.0805 90.9481 71.159 90.9265 71.2335L90.658 72.146L92.5905 72.591C92.71 72.6187 92.815 72.6894 92.8858 72.7896C92.9565 72.8898 92.9879 73.0125 92.9741 73.1343C92.9603 73.2562 92.9021 73.3687 92.8108 73.4505C92.7194 73.5323 92.6012 73.5777 92.4785 73.578Z" fill="black"/>
<path d="M93.5486 74.786H106.044L109.519 66.611H97.0236L93.5486 74.786Z" stroke="black" stroke-miterlimit="10" stroke-linecap="round" stroke-linejoin="round"/>
<path d="M88.0635 74.786H93.5485" stroke="black" stroke-miterlimit="10" stroke-linecap="round" stroke-linejoin="round"/>
</svg>
